<svg width="34" height="29" viewBox="0 0 34 29" fill="none" xmlns="http://www.w3.org/2000/svg">
<path fill-rule="evenodd" clip-rule="evenodd" d="M16.5 14.3977C18.1416 14.3977 19.4723 13.1004 19.4723 11.5C19.4723 9.89963 18.1416 8.60227 16.5 8.60227C14.8584 8.60227 13.5277 9.89963 13.5277 11.5C13.5277 13.1004 14.8584 14.3977 16.5 14.3977ZM16.5 12.4659C17.0472 12.4659 17.4908 12.0335 17.4908 11.5C17.4908 10.9665 17.0472 10.5341 16.5 10.5341C15.9528 10.5341 15.5092 10.9665 15.5092 11.5C15.5092 12.0335 15.9528 12.4659 16.5 12.4659Z" fill="#193362"/>
<path fill-rule="evenodd" clip-rule="evenodd" d="M18.9714 3.66832L19.2901 5.94723C19.5494 6.07131 19.7988 6.21215 20.0367 6.3683L22.2214 5.49763C22.5883 5.35141 23.0095 5.49189 23.2078 5.82654L24.8938 8.67346C25.0919 9.00812 25.0061 9.43404 24.6928 9.67069L22.8266 11.0801C22.8361 11.2189 22.841 11.3589 22.841 11.5C22.841 11.6411 22.8361 11.7811 22.8266 11.9199L24.6928 13.3293C25.0061 13.566 25.0919 13.9919 24.8938 14.3266L23.2078 17.1734C23.0095 17.5081 22.5883 17.6486 22.2214 17.5024L20.0367 16.6317C19.7988 16.7879 19.5494 16.9287 19.2901 17.0527L18.9714 19.3317C18.9178 19.7146 18.5823 20 18.186 20H14.814C14.4176 20 14.0822 19.7146 14.0286 19.3317L13.7099 17.0527C13.4506 16.9287 13.2012 16.7879 12.9633 16.6317L10.7786 17.5024C10.4117 17.6486 9.99043 17.5081 9.79224 17.1734L8.10625 14.3266C7.90806 13.9919 7.99391 13.566 8.30725 13.3293L10.1734 11.9199C10.1639 11.7811 10.159 11.6411 10.159 11.5C10.159 11.3589 10.1639 11.2189 10.1734 11.0801L8.30725 9.67069C7.99391 9.43404 7.90806 9.00812 8.10624 8.67346L9.79224 5.82654C9.99042 5.49189 10.4117 5.35141 10.7786 5.49763L12.9633 6.3683C13.2012 6.21215 13.4506 6.07131 13.7099 5.94723L14.0286 3.66832C14.0822 3.28545 14.4176 3 14.814 3H18.186C18.5823 3 18.9178 3.28545 18.9714 3.66832ZM17.4693 7.228L18.4171 7.68144C18.595 7.76659 18.7664 7.86336 18.9301 7.97082L19.8075 8.54667L22.0106 7.66866L22.6587 8.76316L20.7789 10.183L20.8495 11.2094C20.8561 11.3052 20.8594 11.402 20.8594 11.5C20.8594 11.598 20.8561 11.6949 20.8495 11.7906L20.7789 12.817L22.6587 14.2368L22.0106 15.3313L19.8075 14.4534L18.9301 15.0292C18.7664 15.1366 18.595 15.2334 18.4171 15.3186L17.4693 15.772L17.1482 18.0682H15.8518L15.5307 15.772L14.5829 15.3186C14.405 15.2334 14.2336 15.1366 14.0699 15.0292L13.1925 14.4534L10.9894 15.3313L10.3412 14.2368L12.2211 12.817L12.1505 11.7906C12.1439 11.6948 12.1406 11.598 12.1406 11.5C12.1406 11.402 12.1439 11.3052 12.1505 11.2094L12.2211 10.183L10.3412 8.76316L10.9894 7.66866L13.1925 8.54667L14.0699 7.97081C14.2336 7.86336 14.405 7.7666 14.5829 7.68144L15.5307 7.228L15.8518 4.93182H17.1482L17.4693 7.228Z" fill="#193362"/>
</svg>
