<svg width="37" height="37" viewBox="0 0 37 37" fill="none" xmlns="http://www.w3.org/2000/svg">
<path d="M17.2861 5.01L17.8864 6.41085L17.2861 5.01L8.16806 8.91772C6.90507 9.459 6.15269 10.7707 6.32313 12.1342L7.26814 19.6943C7.60755 22.4095 8.96571 24.8944 11.0678 26.6462L16.5267 31.1953C17.6702 32.1482 19.3311 32.1482 20.4746 31.1953L25.9335 26.6462C28.0356 24.8944 29.3938 22.4095 29.7332 19.6943L30.6782 12.1342C30.8486 10.7707 30.0962 9.459 28.8332 8.91772L19.7152 5.01L19.1079 6.42702L19.7152 5.01C18.9396 4.6776 18.0617 4.6776 17.2861 5.01Z" stroke="white" stroke-width="3.08333" stroke-linecap="round"/>
<path d="M13.8744 18.5L17.8345 22.4601C18.1784 22.8041 18.7511 22.7474 19.0209 22.3427L24.666 13.875" stroke="white" stroke-width="3.08333" stroke-linecap="round"/>
</svg>
