<svg width="34" height="29" viewBox="0 0 34 29" fill="none" xmlns="http://www.w3.org/2000/svg">
<path d="M17 2C12.032 2 8 6.032 8 11C8 15.968 12.032 20 17 20C21.968 20 26 15.968 26 11C26 6.032 21.968 2 17 2ZM17 4.7C18.494 4.7 19.7 5.906 19.7 7.4C19.7 8.894 18.494 10.1 17 10.1C15.506 10.1 14.3 8.894 14.3 7.4C14.3 5.906 15.506 4.7 17 4.7ZM17 17.48C14.75 17.48 12.761 16.328 11.6 14.582C11.627 12.791 15.2 11.81 17 11.81C18.791 11.81 22.373 12.791 22.4 14.582C21.239 16.328 19.25 17.48 17 17.48Z" fill="#193362"/>
</svg>
