<svg width="34" height="29" viewBox="0 0 34 29" fill="none" xmlns="http://www.w3.org/2000/svg">
<g clip-path="url(#clip0_1001_3706)">
<path d="M15.4211 10.8253V5.84211H18.2632V9.63158H20.1579V3.94737H15.4211V3H6.89474V18.1579H5V20.0526H13.7726C13.0242 18.9821 12.5789 17.6747 12.5789 16.2632C12.5789 14.0084 13.7063 12.0284 15.4211 10.8253ZM11.6316 10.5789H13.5263V12.4737H11.6316V10.5789ZM22.7063 15.6663L23.7863 14.7189L22.8389 13.08L21.4653 13.5442C21.1621 13.2884 20.8211 13.0895 20.4421 12.9474L20.1579 11.5263H18.2632L17.9789 12.9379C17.6 13.08 17.2589 13.2789 16.9558 13.5347L15.5821 13.0705L14.6347 14.7095L15.7147 15.6568C15.6389 16.1305 15.6389 16.3768 15.7147 16.8505L14.6347 17.7979L15.5821 19.4368L16.9558 18.9726C17.2589 19.2284 17.6 19.4274 17.9789 19.5695L18.2632 21H20.1579L20.4421 19.5884C20.8211 19.4463 21.1621 19.2474 21.4653 18.9916L22.8389 19.4558L23.7863 17.8168L22.7063 16.8695C22.7821 16.3863 22.7821 16.14 22.7063 15.6663ZM19.2105 18.1579C18.1684 18.1579 17.3158 17.3053 17.3158 16.2632C17.3158 15.2211 18.1684 14.3684 19.2105 14.3684C20.2526 14.3684 21.1053 15.2211 21.1053 16.2632C21.1053 17.3053 20.2526 18.1579 19.2105 18.1579Z" fill="#193362"/>
</g>
<defs>
<clipPath id="clip0_1001_3706">
<rect width="24" height="24" fill="white" transform="translate(5)"/>
</clipPath>
</defs>
</svg>
